<?xml version="1.0" standalone="no"?><!DOCTYPE svg PUBLIC "-//W3C//DTD SVG 1.1//EN" "http://www.w3.org/Graphics/SVG/1.1/DTD/svg11.dtd"><svg t="1587626169714" class="icon" viewBox="0 0 3076 1024" version="1.1" xmlns="http://www.w3.org/2000/svg" p-id="3094" xmlns:xlink="http://www.w3.org/1999/xlink" width="600.78125" height="200"><defs><style type="text/css"></style></defs><path d="M647.800858 79.107296c-37.356223 21.095279-63.285837 61.088412-63.285837 96.24721 0 23.732189 3.076395 30.324464 18.45837 38.235194 15.381974 7.91073 32.961373 5.27382 60.209442-9.66867 10.547639-5.713305 19.776824-10.547639 20.216309-10.547639 0.87897 0 0.87897 10.547639 0.439485 22.853218-0.439485 20.655794 0.439485 23.292704 8.350214 23.292704 7.91073 0 8.7897-3.076395 9.66867-26.369098 0.439485-14.503004 3.955365-35.158798 7.471244-46.145923 9.229185-26.808584 8.7897-31.642918-2.63691-29.884979-6.15279 0.87897-10.547639 5.713305-12.745064 14.06352-4.834335 17.139914-18.897854 31.203433-41.751073 41.751073-34.279828 16.260944-50.101288 10.547639-50.101287-17.139915 0-23.292704 24.171674-60.648927 50.101287-78.228326 22.413734-14.942489 43.948498-18.458369 48.343348-7.471244 3.51588 9.229185 10.108155 8.350215 15.821459-2.63691 13.184549-24.611159-31.203433-29.884979-68.559657-8.350215zM145.030043 78.667811c-2.197425 4.834335-4.39485 14.503004-4.39485 21.974249 0 7.03176-3.076395 36.477253-6.592275 64.604292-4.834335 35.158798-5.27382 53.177682-2.197424 56.254077 3.076395 3.076395 11.426609 2.197425 27.248068-1.75794 12.745064-3.51588 34.719313-6.15279 48.343348-6.592274 26.808584-0.439485 39.993133-7.03176 31.203433-15.82146-3.51588-3.51588-15.381974-3.51588-43.948498-0.439485-21.095279 2.63691-40.432618 3.076395-42.190557 1.318455-2.197425-2.197425-0.439485-28.566524 3.515879-59.330472s6.15279-58.890987 4.834335-62.406867c-3.51588-8.7897-10.108155-7.471245-15.821459 2.197425zM316.429185 75.151931c-25.929614 10.547639-57.133047 53.177682-63.725322 87.896996-3.076395 17.139914 3.076395 36.916738 16.260944 50.980258 10.987124 11.866094 39.114163 13.624034 62.406867 3.955364 33.840343-14.063519 68.120172-62.406867 68.559656-95.807725 0-36.037768-45.706438-61.967382-83.502145-47.024893z m50.980257 22.853219c19.776824 17.139914 14.942489 49.661803-12.305579 79.986266C307.2 232.927039 250.506438 202.16309 281.709871 137.998283c21.095279-43.948498 59.769957-61.967382 85.699571-39.993133zM542.763948 93.170815c-1.318455 12.745064-6.15279 39.993133-9.668669 60.209443l-7.03176 37.356223-11.426609-13.624035c-15.821459-19.337339-39.993133-59.769957-46.145923-78.228326-13.184549-37.795708-20.216309-29.884979-32.961373 37.356223-14.942489 77.788841-15.821459 87.896996-8.350215 87.896996 10.108155 0 16.700429-9.66867 16.700429-25.490129 0-21.974249 9.66867-76.030901 13.624035-74.712446 1.75794 0.87897 17.139914 22.853219 34.719313 48.782833 25.929614 39.114163 32.961373 47.464378 40.872103 46.145922 8.350215-1.318455 10.108155-4.834335 12.745064-32.082403 1.318455-17.139914 5.713305-45.266953 9.66867-62.846352 9.229185-43.509013 9.229185-53.617167-1.318455-53.617167-7.03176 0-8.7897 4.39485-11.42661 22.853218zM1002.465236 73.393991c-5.713305 1.318455-31.642918 4.39485-57.133047 7.03176-36.037768 3.955365-46.585408 6.592275-46.585408 11.866094 0 5.27382 6.592275 6.592275 30.763949 6.592275h30.763948l-0.439485 13.18455c-0.439485 7.03176-2.197425 32.082403-3.51588 54.935622-3.51588 43.948498 0 56.254077 12.745065 50.980257 5.713305-2.197425 7.03176-6.15279 4.834334-17.139914-3.955365-20.216309 5.713305-105.476395 11.866095-109.431759 3.076395-1.75794 18.458369-3.51588 35.158798-3.51588 21.974249 0 29.445494-1.318455 29.445494-6.15279 0-10.547639-18.897854-13.624034-47.903863-8.350215zM1074.101288 73.833476c-6.592275 3.955365-9.66867 18.458369-17.139915 76.470387-7.03176 52.738197-5.27382 70.757082 6.15279 68.559656 5.713305-1.318455 7.471245-9.229185 9.66867-40.872103 1.318455-21.974249 5.27382-52.738197 8.350214-69.438626 6.15279-29.006009 3.51588-41.751073-7.031759-34.719314zM1136.947639 72.954506c-1.75794 1.75794-3.076395 8.350215-3.076394 14.06352 0 6.15279-6.15279 37.356223-14.06352 69.878111-10.987124 45.266953-12.745064 59.769957-8.789699 63.725322 9.229185 9.229185 14.063519-1.75794 25.490129-54.056652 11.426609-52.738197 14.063519-59.330472 17.579399-45.706438 1.318455 4.834335 6.592275 19.776824 11.866094 32.961373 14.503004 36.477253 21.974249 35.158798 56.254077-10.547639 15.381974-20.655794 29.445494-37.356223 31.203434-37.795708 1.75794 0 2.197425 9.229185 0.439485 20.216309-1.318455 10.987124-2.63691 36.477253-3.076395 56.254077-0.439485 32.961373 0.439485 35.598283 8.350215 35.598283 7.03176 0 8.7897-2.63691 7.910729-15.381974 0-8.350215 1.318455-37.795708 3.955365-65.043777 2.63691-27.248069 4.834335-53.177682 5.27382-57.133047 0.439485-4.834335-2.63691-7.471245-9.229185-7.471245-7.03176 0-18.458369 11.426609-41.751073 41.311588-17.579399 22.853219-34.279828 41.311588-36.477253 41.311588-2.63691 0-11.426609-18.897854-19.776824-41.311588-14.063519-38.235193-23.292704-49.661803-32.082404-40.872103zM1386.575107 74.712446c-11.866094 2.197425-31.203433 3.955365-42.630043 3.955365l-21.095279 0.439485v22.853219c0 22.853219-9.66867 91.412876-14.942489 104.597425-1.318455 3.51588-0.87897 9.229185 1.318455 12.745064 3.076395 4.834335 12.305579 5.27382 53.177682 1.318455 49.222318-4.39485 63.285837-9.66867 54.056653-18.897854-3.076395-3.076395-15.821459-2.63691-42.190558 0.87897-24.171674 3.51588-39.553648 3.955365-42.190558 1.75794-2.197425-2.63691-2.63691-12.305579-0.87897-21.974249 3.076395-19.776824 7.91073-21.974249 50.101288-26.808584 16.700429-1.318455 26.369099-4.834335 28.127038-8.789699 3.955365-10.987124-2.197425-12.305579-35.158798-7.03176-17.139914 2.63691-32.961373 3.51588-34.719313 1.75794-3.955365-3.955365 3.076395-35.598283 8.789699-41.311588 2.63691-2.63691 20.655794-6.15279 40.432618-8.350214 39.553648-3.955365 41.751073-4.834335 38.235193-14.94249-3.076395-7.03176-6.592275-7.471245-40.432618-2.197425zM1896.377682 93.170815c-1.318455 12.745064-6.15279 39.993133-9.668669 60.209443l-7.03176 37.356223-11.426609-13.624035c-15.821459-19.337339-39.993133-59.769957-46.145923-78.228326-13.184549-37.795708-20.216309-29.884979-32.961373 37.356223-14.942489 77.788841-15.821459 87.896996-8.350215 87.896996 10.108155 0 16.700429-9.66867 16.700429-25.490129 0-21.974249 9.66867-76.030901 13.624035-74.712446 1.75794 0.87897 17.139914 22.853219 34.719313 48.782833 25.929614 39.114163 32.961373 47.464378 40.872103 46.145922 8.350215-1.318455 10.108155-4.834335 12.745064-32.082403 1.318455-17.139914 5.713305-45.266953 9.66867-62.846352 9.229185-43.509013 9.229185-53.617167-1.318455-53.617167-7.03176 0-8.7897 4.39485-11.42661 22.853218zM2004.051502 75.151931c-18.458369 7.471245-39.993133 31.203433-53.177682 58.890987-18.018884 37.356223-16.700429 55.375107 6.152789 79.986267 6.592275 7.471245 14.063519 10.108155 27.687554 10.108154 27.248069 0 40.432618-6.592275 66.362232-32.082403 48.343348-47.464378 46.585408-102.839485-3.51588-117.34249-18.018884-5.27382-29.006009-5.27382-43.509013 0.439485z m50.101288 21.974249c31.642918 25.050644-7.03176 100.202575-55.814593 108.113305-44.827468 7.03176-52.738197-40.872103-14.503004-92.291846 18.458369-25.490129 49.222318-32.082403 70.317597-15.821459zM2558.24206 76.909871c-25.929614 8.350215-39.993133 21.974249-39.993133 40.432618 0 19.337339 10.547639 29.006009 44.387983 40.432618 38.235193 12.745064 42.630043 15.821459 36.477253 25.490129-9.66867 15.381974-32.961373 25.050644-60.648927 25.490129-28.127039 0-36.477253 6.592275-19.776824 15.381974 21.974249 11.866094 86.578541-10.987124 98.00515-35.158798 10.547639-21.534764 1.75794-31.203433-44.387983-46.585408-25.929614-8.7897-37.356223-18.018884-35.598283-29.884978 3.076395-21.534764 62.406867-33.840343 75.591416-15.381975 7.03176 10.547639 15.821459 7.91073 15.82146-4.834335 0-10.108155-21.095279-21.974249-38.235193-21.534763-6.592275 0-21.095279 2.63691-31.642919 6.152789zM2729.201717 74.712446c-10.987124 2.197425-29.884979 3.955365-42.630043 3.955365l-22.853219 0.439485 0.439485 16.260944c0.439485 9.229185-3.076395 40.872103-7.471245 70.757082-4.39485 29.445494-6.592275 54.935622-5.273819 56.254077 4.39485 4.39485 100.202575-5.713305 105.476394-10.987124 3.51588-3.51588 3.51588-6.15279 0-9.66867-3.076395-3.076395-15.821459-2.63691-42.190558 0.87897-24.171674 3.51588-39.553648 4.39485-42.630042 1.318455-3.51588-3.51588 0.439485-34.719313 5.713304-39.553648 1.318455-1.318455 16.700429-4.39485 34.719314-6.592275 33.840343-4.834335 51.419742-14.063519 36.916738-19.776824-3.955365-1.75794-19.776824-0.87897-34.719314 1.75794-35.598283 5.713305-38.235193 3.955365-32.082403-21.095279 5.27382-21.534764 4.834335-21.534764 65.483262-29.006008 16.700429-1.75794 21.095279-3.955365 19.776824-9.66867-1.75794-8.7897-11.426609-10.108155-38.674678-5.27382zM2869.83691 74.712446c-10.987124 2.197425-29.884979 3.955365-42.190558 3.955365l-22.853219 0.439485 0.439485 20.655794c0 11.866094-3.51588 43.509013-7.91073 70.317597-4.39485 27.248069-7.03176 50.980258-5.273819 52.298712 4.39485 4.39485 100.202575-5.713305 105.476395-10.987124 3.51588-3.51588 3.51588-6.15279 0-9.66867-3.076395-3.076395-14.942489-3.076395-39.553649 0.87897-45.706438 7.03176-49.661803 5.27382-45.266952-18.018884 1.75794-9.66867 4.39485-18.897854 5.713304-20.216309 1.318455-1.318455 16.700429-4.39485 34.719314-6.592275 33.840343-4.834335 51.419742-14.063519 36.916738-19.776824-3.955365-1.75794-19.776824-0.87897-34.719313 1.75794-35.598283 5.713305-38.235193 3.955365-32.082404-21.095279 5.27382-21.534764 4.834335-21.534764 65.483262-29.006008 16.700429-1.75794 21.095279-3.955365 19.776824-9.66867-1.75794-8.7897-11.426609-10.108155-38.674678-5.27382zM1148.813734 346.753648c0.439485 51.859227-3.51588 58.451502-40.872103 68.999142-49.661803 13.624034-63.285837 22.413734-53.617167 34.279828 6.592275 7.91073 32.521888 13.624034 54.496137 11.866094 29.445494-2.197425 29.445494-2.197425 26.808584 105.91588l-2.63691 96.686696-21.534764 22.413733c-11.866094 12.745064-32.521888 38.235193-46.585408 57.133048-34.279828 46.585408-92.73133 106.355365-103.718455 106.355364-9.229185 0-10.987124 2.197425-22.853219 31.642919-9.66867 22.853219-4.39485 32.082403 18.458369 32.082403 12.305579 0 16.260944-2.63691 22.413734-13.624034 20.216309-36.916738 171.399142-212.271245 160.851502-186.341631-1.75794 4.834335-4.39485 21.974249-5.273819 38.235193-1.318455 27.687554-2.197425 29.445494-14.503005 33.840344-15.821459 5.27382-16.260944 12.305579-1.318455 18.018884 10.547639 4.39485 11.426609 6.15279 8.7897 23.292704-8.350215 54.056652-7.91073 89.654936 1.75794 135.361373 9.229185 44.387983 19.337339 65.483262 27.687553 57.133047 1.75794-1.75794 3.51588-46.145923 3.51588-97.565665 0-51.859227 1.318455-97.565665 2.63691-101.960515 1.75794-7.03176 5.27382-7.471245 26.808584-5.27382 49.222318 5.713305 73.833476 10.987124 105.476395 24.171674 42.190558 17.139914 64.164807 32.961373 94.928755 67.680687 27.687554 31.642918 43.509013 42.190558 63.285837 42.190558 18.897854 0 27.248069-11.866094 27.248069-39.114163 0-21.534764-1.318455-24.171674-22.413734-46.585408-22.413734-24.171674-74.712446-54.935622-92.731331-54.935622-4.834335 0-13.624034-3.955365-19.776824-8.7897-6.592275-4.834335-18.018884-8.7897-27.248068-8.7897-8.7897 0-23.732189-2.197425-33.400859-4.394849-9.66867-2.63691-39.993133-5.27382-67.241201-6.592275-27.248069-0.87897-51.859227-3.076395-54.496138-4.834335-3.51588-2.197425-3.51588-16.260944-1.318455-47.464378 2.197425-24.611159 3.51588-93.6103 3.076395-153.819742-0.87897-74.712446 0.439485-110.750215 3.51588-115.145064 3.076395-3.076395 22.853219-13.184549 44.387983-21.974249 51.859227-21.534764 69.878112-45.706438 48.782832-64.604292-10.547639-9.66867-15.381974-9.229185-47.464377 1.75794-36.916738 13.184549-41.311588 10.547639-38.235193-19.337339 2.63691-26.369099-7.471245-51.419742-21.095279-51.419743-6.15279 0-7.03176 5.713305-6.592275 43.509013zM1888.027468 327.416309c-3.955365 16.260944-33.840343 58.890987-43.069528 61.967382-11.426609 3.51588-14.063519 19.776824-6.15279 38.674678 3.51588 8.7897 7.471245 15.821459 8.350215 15.821459 1.318455 0 10.547639-3.955365 21.095279-8.789699s27.248069-8.7897 37.356223-8.7897c20.655794 0 58.890987 11.866094 61.527897 19.337339 6.592275 16.700429-41.311588 67.680687-112.06867 119.979399-15.821459 11.866094-29.006009 23.732189-30.324463 26.369099-3.076395 10.987124 15.381974 5.713305 42.190558-11.426609 30.324464-19.776824 31.642918-18.897854 31.642918 18.458369 0 38.674678-1.318455 39.993133-40.872103 53.177682-36.916738 12.305579-42.190558 11.426609-42.630043-7.471244 0-8.7897-25.050644-68.559657-31.642918-75.591417-8.350215-9.229185-11.866094 10.108155-9.66867 56.254077 1.75794 32.521888 0.87897 49.222318-2.197425 53.177683-7.03176 8.350215-54.056652 13.624034-65.483261 7.471245-7.03176-3.51588-12.745064-2.63691-26.808584 5.273819-20.655794 10.987124-22.413734 17.579399-7.03176 27.687554 10.987124 7.471245 27.687554 7.03176 82.183691-0.87897l20.216309-2.63691 5.713305 25.050644c3.076395 14.063519 9.229185 29.445494 13.184549 34.719313 7.471245 8.7897 8.350215 8.7897 15.381975 1.75794 5.27382-5.27382 8.350215-18.018884 10.108154-41.311588 3.51588-37.795708 9.66867-46.145923 40.432618-54.496137 21.534764-5.713305 25.929614-3.51588 25.929614 14.942489 0 19.776824 8.350215 42.190558 15.821459 42.190558 9.66867 0 22.413734-24.171674 25.490129-47.903863 3.076395-22.413734 15.381974-38.235193 26.369099-34.279828 3.51588 1.318455 7.471245 10.547639 9.229184 20.216309 3.076395 19.776824 18.897854 35.598283 35.158798 35.598283 12.305579 0 16.260944-7.91073 19.33734-39.553648l2.636909-24.171674 21.534764-1.318455c28.127039-1.75794 42.190558 1.75794 42.190558 10.987125 0 15.381974-19.776824 46.585408-47.903862 76.030901-32.082403 32.961373-41.311588 38.235193-76.030902 41.751073-12.745064 1.318455-42.190558 6.15279-65.043776 10.54764-35.158798 7.03176-43.509013 7.471245-53.617168 2.636909-10.108155-4.834335-12.305579-4.39485-20.216309 3.076395-6.592275 7.03176-21.534764 10.547639-66.801717 16.260945-62.846352 8.350215-60.209442 8.7897-74.712446-16.260945-11.426609-18.458369-19.776824-18.458369-15.821459 0 10.108155 49.222318 7.91073 79.546781-8.7897 134.042919-6.15279 18.897854-6.15279 24.611159-1.75794 29.884978 8.7897 10.987124 18.897854 7.471245 38.235193-12.305579 27.248069-27.687554 29.006009-36.037768 17.139915-76.470386-5.713305-18.897854-9.229185-36.037768-7.91073-38.235193 0.87897-2.197425 15.381974-2.63691 32.082403-1.318455 16.260944 1.318455 43.069528 0.439485 59.330473-1.75794 16.260944-2.197425 31.203433-2.63691 32.961373-0.87897 1.75794 2.197425 1.318455 21.095279-1.318455 43.069528-2.63691 21.534764-4.834335 47.464378-5.27382 57.133047-0.439485 15.821459 0.87897 17.579399 11.42661 18.897854 7.471245 0.87897 15.381974-2.197425 21.534764-8.350215 8.7897-8.7897 9.229185-12.305579 6.592274-47.464377-1.75794-20.655794-3.955365-44.387983-5.273819-51.859228-3.076395-17.139914-6.592275-15.821459 59.769957-25.050644 123.495279-16.700429 152.940773-19.337339 199.965665-17.139914 53.617167 2.197425 82.623176-1.75794 84.820601-12.745064 2.63691-13.624034-23.732189-18.897854-87.896996-17.579399-47.903863 0.87897-60.648927-0.439485-60.648927-4.834335 0-7.03176 18.018884-23.732189 43.069528-39.553648 10.547639-7.03176 25.490129-22.853219 34.279828-36.037768 8.350215-13.184549 16.700429-24.171674 18.458369-24.171674 1.75794 0 9.66867-3.955365 18.018884-9.229185l14.94249-8.789699-12.30558-12.745065c-10.547639-10.987124-11.866094-14.942489-9.668669-29.884978 3.51588-20.655794-3.955365-32.521888-27.687554-44.827468-20.216309-10.547639-34.719313-10.987124-46.145923-2.63691-8.350215 6.15279-8.350215 6.592275 2.63691 16.700429 10.987124 10.547639 20.216309 39.114163 14.94249 47.464378-1.318455 2.197425-18.897854 3.51588-38.674679 2.63691-34.719313-1.75794-36.477253-2.197425-44.827467-15.381974l-8.7897-13.624035-41.311588 0.87897-41.751073 1.318455-6.15279-20.655794-6.592274-20.655794 14.942489-11.866094c8.350215-6.592275 23.732189-21.534764 34.719313-32.521889s26.369099-22.853219 34.279829-25.929613c16.260944-6.592275 31.642918-24.171674 31.642918-35.598284 0-10.987124-22.853219-29.445494-43.069528-35.158798-8.7897-2.197425-29.445494-4.39485-45.706438-4.39485-16.700429 0-29.884979-1.75794-29.884978-3.51588s7.03176-10.108155 15.381974-18.458369c16.700429-16.260944 16.260944-18.897854-7.910729-49.661802-15.381974-18.897854-22.853219-20.655794-26.808584-5.27382zM2775.347639 344.556223c-14.503004 5.713305-41.751073 14.063519-60.648927 18.018884-18.897854 3.955365-47.464378 14.063519-63.285836 22.853219-27.248069 14.063519-31.203433 14.942489-64.604292 13.624035-33.840343-1.318455-35.598283-0.87897-36.916739 8.350214-2.197425 14.503004 25.050644 57.133047 39.993134 62.406867 14.942489 5.713305 24.171674 2.197425 37.356223-13.624034 6.15279-7.03176 16.700429-15.821459 24.611159-19.776824 7.471245-3.955365 24.171674-16.700429 37.356223-28.566524 40.872103-37.356223 90.973391-54.496137 105.91588-36.477253 10.108155 12.305579 0.439485 26.369099-47.903863 68.999141-53.177682 47.024893-62.406867 52.738197-97.12618 60.209443-51.419742 10.987124-92.291845 24.171674-92.291846 29.445493 0 9.229185 16.700429 11.866094 76.030901 12.30558 57.572532 0.439485 64.164807 2.63691 64.604292 19.337339 0 18.897854-19.337339 30.324464-74.712446 43.069527-32.521888 7.03176-36.916738 10.108155-32.521889 20.655794 4.39485 11.866094 25.929614 17.139914 64.164807 15.381975l36.477254-1.318455-0.87897 14.503004c0 8.350215-4.834335 19.337339-9.66867 24.611159-10.987124 11.426609-49.661803 24.611159-83.941631 28.566523-29.884979 3.076395-32.082403 11.866094-5.27382 25.490129 15.821459 7.91073 24.611159 9.229185 55.814593 7.471245 32.521888-1.318455 40.872103-3.51588 71.196566-18.458369 18.897854-9.66867 50.540773-22.853219 70.757082-29.884979 34.719313-11.426609 58.012017-27.248069 58.012017-39.114163 0-2.63691-3.955365-8.7897-8.7897-13.184549-10.987124-10.108155-26.369099-6.15279-44.387982 11.426609-11.426609 10.987124-16.260944 13.184549-31.203434 11.866095-24.611159-1.75794-30.324464-11.866094-18.897854-32.961374 6.592275-11.866094 13.624034-17.579399 26.808584-21.974249 24.171674-7.91073 40.432618-25.490129 33.840343-35.598283-4.39485-7.471245-20.216309-8.7897-53.617167-4.834335-12.745064 1.318455-16.260944 0-21.095279-9.229184-6.15279-11.866094-7.91073-9.229185 25.050643-34.279829 6.15279-4.39485 21.974249-11.866094 35.158799-16.260944 28.566524-9.229185 35.158798-13.624034 35.158798-24.611159 0-9.66867-12.305579-17.139914-28.127039-17.139914-14.503004 0-14.503004-6.15279 0-16.260944 6.592275-4.39485 16.260944-12.305579 22.413734-18.018884 5.713305-5.27382 18.018884-13.624034 27.687554-18.458369 23.292704-11.866094 35.158798-28.127039 35.158798-49.222318 0-15.381974-1.318455-17.579399-15.381974-23.732189-22.853219-9.229185-61.527897-7.471245-92.291846 4.39485zM165.685837 367.409442c-1.318455 1.75794-1.75794 25.929614-0.439485 54.056652 3.51588 72.075536 14.942489 98.444635 43.948498 104.15794 15.821459 3.076395 21.534764 0 49.661802-23.732189l14.503005-12.305579-13.624035-15.821459c-16.260944-18.458369-15.381974-33.400858 2.63691-47.464378 22.413734-17.579399 38.235193-7.03176 45.266953 29.884979 9.66867 51.419742-8.7897 90.973391-72.954506 156.017167-9.66867 10.108155-20.216309 22.853219-23.292704 28.127039-7.03176 14.063519-18.897854 12.305579-27.687554-3.51588-8.350215-14.503004-17.579399-13.184549-16.260944 1.75794 2.197425 31.642918 0 37.795708-17.139914 46.585408-24.171674 12.305579-27.248069 17.579399-28.127039 49.222317-1.318455 25.929614-0.439485 28.127039 10.108155 33.400859 10.108155 4.834335 11.866094 9.229185 14.503004 31.642918 1.75794 15.381974 5.713305 28.566524 10.108154 31.642918 5.713305 4.834335 8.7897 3.955365 19.337339-8.350214 10.547639-11.866094 12.745064-18.018884 12.745065-36.037768 0-22.413734 8.350215-49.222318 17.139914-54.496138 2.63691-1.75794 15.821459-6.15279 29.445493-9.668669 23.732189-6.15279 25.929614-5.713305 43.948498 2.63691 11.866094 6.15279 20.216309 13.184549 22.413734 21.095279 5.27382 15.821459 0.439485 42.630043-10.108154 54.056652-4.39485 4.834335-17.579399 24.171674-28.566524 42.630043-18.458369 30.324464-23.292704 34.719313-50.540772 49.222317-32.961373 17.579399-39.553648 29.006009-25.490129 44.387983 9.229185 10.108155 24.171674 10.547639 41.311588 1.75794 25.490129-13.184549 107.67382-120.858369 112.947639-148.106438 1.318455-7.91073 5.27382-18.458369 8.7897-23.292703 3.076395-4.834335 5.713305-14.503004 5.713305-21.534764 0-16.700429-19.337339-49.222318-32.082404-54.056653-16.700429-5.713305-85.260086-2.197425-99.76309 5.27382-12.305579 6.15279-13.624034 6.15279-15.821459 0-4.834335-11.866094 5.27382-26.369099 32.082403-46.585408 14.063519-10.987124 27.248069-24.171674 29.884979-29.445493 2.197425-5.27382 7.91073-10.987124 11.866094-12.30558 14.942489-4.39485 36.037768-30.763948 50.980258-63.285837 13.624034-28.566524 15.381974-37.795708 16.260944-70.317596 0.439485-20.655794 3.51588-47.903863 6.592275-60.648927 13.184549-50.101288-20.216309-54.935622-83.941631-11.42661-19.337339 12.745064-36.916738 23.732189-39.114163 23.732189-5.713305 0-44.827468-38.674678-50.540773-50.101287-4.834335-9.229185-12.305579-13.184549-16.700429-8.7897zM601.654936 402.128755c-15.821459 5.27382-29.006009 15.381974-61.088412 48.343348-33.400858 33.840343-45.266953 49.661803-62.846352 83.502146-14.063519 27.248069-29.006009 48.782833-43.069528 62.406867l-21.095279 20.216309 33.400858 32.521888c33.840343 32.521888 47.464378 38.674678 58.012017 25.929614 7.03176-8.350215-0.439485-36.477253-13.624034-53.177682-14.063519-17.579399-11.426609-37.356223 9.66867-79.986266 13.184549-26.808584 27.248069-46.145923 50.101287-70.317597 36.916738-37.795708 45.266953-39.553648 54.935622-12.305579 9.66867 27.248069 7.91073 144.590558-3.076394 219.742489-4.834335 33.840343-8.7897 66.362232-8.7897 72.515021 0 6.15279-5.27382 36.477253-11.426609 67.680687-12.305579 60.209442-31.203433 104.597425-48.343348 113.387124-15.821459 7.91073-33.400858 26.808584-33.400858 35.158799 0 20.216309 31.203433 8.7897 55.814592-20.216309 35.158798-41.751073 76.030901-108.113305 76.030901-124.374249 0-10.987124 7.03176-42.190558 15.821459-71.196567 3.51588-10.987124 6.15279-29.445494 6.15279-41.751073s3.076395-48.343348 6.592275-79.546781c5.713305-54.496137 5.27382-195.13133-0.439485-214.468669-1.318455-4.834335-9.229185-10.987124-17.579399-14.503005-17.139914-7.03176-15.821459-7.471245-41.751073 0.439485z" p-id="3095"></path><path d="M1245.939914 475.083262c-1.75794 2.197425 0 7.91073 3.955365 12.305579 3.955365 4.39485 7.03176 12.745064 7.03176 18.458369 0 12.305579-29.884979 50.101288-50.540773 63.725322-24.611159 15.821459-18.897854 53.617167 7.471245 48.343348 7.471245-1.318455 23.292704 0.87897 37.795708 5.713305 13.624034 4.834335 33.400858 9.66867 43.509013 10.987124 15.381974 2.197425 19.337339 1.318455 23.292704-5.713305 6.592275-12.745064 5.27382-24.611159-3.51588-35.598283-6.592275-7.91073-12.745064-9.66867-38.235193-10.108154-38.235193-0.87897-40.872103-8.7897-8.7897-25.490129 14.063519-7.03176 29.006009-20.216309 41.311588-36.037768 18.897854-24.171674 19.337339-25.050644 11.42661-33.840344-13.624034-14.942489-67.680687-24.171674-74.712447-12.745064zM1050.369099 526.942489c0 23.732189-7.91073 37.795708-45.706438 81.744206-26.369099 29.884979-31.203433 40.432618-24.171674 48.782833 9.66867 11.866094 23.292704 6.592275 47.024893-19.337339l23.732189-25.050644 16.260944 18.458369c8.7897 10.547639 18.018884 18.897854 20.655794 18.897854 7.91073 0 19.337339-15.821459 24.171674-32.521888 5.27382-18.897854-0.439485-32.082403-14.503005-34.279828-7.91073-0.87897-10.987124-6.15279-15.821459-23.292704-14.503004-55.375107-31.642918-73.393991-31.642918-33.400859zM2764.360515 764.703863c-30.324464 3.076395-43.948498 10.547639-43.948498 23.732189 0 9.66867 1.75794 10.108155 47.024893 13.184549 52.298712 3.076395 80.865236 7.471245 139.756223 21.534764 54.056652 13.184549 65.922747 11.426609 77.349356-10.54764 7.91073-16.260944 8.350215-18.897854 2.197425-28.127038-3.51588-5.713305-13.184549-12.305579-21.095279-14.503005-16.260944-5.27382-164.367382-8.7897-201.28412-5.273819zM2615.375107 786.238627c-2.63691 4.39485-3.51588 9.229185-1.75794 10.547639 1.318455 1.75794 0 18.018884-3.076394 36.037768-7.471245 42.630043-2.197425 61.088412 21.534763 80.425751 9.66867 7.91073 18.458369 18.018884 20.216309 22.413734 1.75794 5.27382 14.503004 13.624034 36.037769 22.413734 29.884979 12.745064 36.916738 14.063519 66.801716 12.30558 69.438627-3.955365 140.635193-33.400858 152.501288-63.285837 4.834335-11.866094 4.39485-14.942489-6.15279-32.082404-10.108155-16.260944-15.821459-20.216309-38.235193-27.248068-39.553648-12.305579-56.254077-3.51588-26.808583 14.063519 25.490129 14.942489 32.082403 49.661803 10.108154 54.496137-40.432618 8.350215-76.470386 11.866094-105.91588 10.108155-33.400858-1.318455-34.719313-1.75794-50.980257-19.776824-16.700429-17.579399-30.763948-52.298712-30.763949-74.712447 0-15.821459-10.987124-39.114163-22.413734-47.024892-13.184549-8.7897-15.821459-8.7897-21.095279 1.318455zM2467.26867 819.639485c-6.15279 9.229185-6.15279 14.942489-2.197425 40.432618 2.63691 16.260944 5.27382 35.598283 6.152789 42.190558 1.318455 15.821459 21.095279 29.445494 32.961374 22.413734 12.745064-7.91073 20.216309-36.477253 16.700429-63.725322-2.63691-19.337339-6.15279-27.687554-16.700429-38.674678-16.260944-16.260944-27.248069-17.139914-36.916738-2.63691zM2102.935622 857.435193c-11.866094 1.75794-43.509013 6.592275-69.878111 10.54764-46.585408 6.592275-47.903863 6.15279-63.725322-2.63691-12.305579-6.592275-21.974249-8.350215-41.311588-7.471245-27.687554 1.318455-32.521888 7.03176-14.063519 15.821459 6.592275 3.51588 15.821459 12.745064 20.655794 21.095279 6.15279 10.108155 14.063519 16.260944 25.490128 19.776824 14.942489 4.39485 18.018884 3.955365 31.203434-5.713304 26.369099-19.337339 68.120172-29.884979 117.781974-29.884979 33.840343 0 55.375107 10.987124 50.101288 25.490129-3.51588 10.108155-42.190558 62.846352-53.617168 72.954506-5.27382 4.834335-9.229185 12.305579-9.229184 16.700429 0 6.592275 2.197425 7.91073 10.108154 5.27382 5.27382-1.318455 11.866094-4.39485 14.063519-6.152789 2.63691-1.75794 21.534764-12.305579 43.069528-23.732189 21.095279-10.987124 43.069528-23.292704 49.222318-27.248069 6.15279-3.955365 14.063519-5.713305 18.018884-4.39485 9.66867 3.51588 23.732189-4.834335 23.732189-14.503004 0-3.955365-10.547639-18.897854-22.853219-32.082404-33.400858-35.158798-66.801717-43.948498-128.769099-33.840343z" p-id="3096"></path></svg>