<?xml version="1.0" standalone="no"?><!DOCTYPE svg PUBLIC "-//W3C//DTD SVG 1.1//EN" "http://www.w3.org/Graphics/SVG/1.1/DTD/svg11.dtd"><svg t="1587626038556" class="icon" viewBox="0 0 4398 1024" version="1.1" xmlns="http://www.w3.org/2000/svg" p-id="2144" xmlns:xlink="http://www.w3.org/1999/xlink" width="858.984375" height="200"><defs><style type="text/css"></style></defs><path d="M6.050405 28.033543h181.791396v355.25185h314.931332V28.033543h181.147571V969.616168H502.773133V556.753604h-314.931332V969.616168H6.058162V28.033543z m1570.80922 643.933732h-561.368976c8.105991 49.504723 29.763338 88.87114 64.97204 118.09925 35.200945 29.235867 80.113566 43.849922 134.737862 43.849921 65.290074 0 121.403701-22.828643 168.348638-68.493686l147.226519 69.129755c-36.70579 52.06451-80.656551 90.577664-131.867799 115.539462-51.203491 24.961799-112.01006 37.450455-182.427464 37.450455-109.240836 0-198.212816-34.464037-266.915939-103.376597-68.71088-68.920317-103.058563-155.223913-103.058563-258.926302 0-106.254418 34.246843-194.481733 102.732772-264.674186 68.493686-70.200211 154.370651-105.300316 257.638651-105.300316 109.675224 0 198.856641 35.100105 267.567521 105.300316 68.703123 70.200211 103.050806 162.895516 103.050807 278.116945l-0.636069 33.284983z m-175.384172-137.615683c-11.526797-38.831188-34.246843-70.409648-68.175652-94.735378-33.928809-24.32573-73.287468-36.488596-118.09925-36.488596-48.643704 0-91.322329 13.652196-128.020361 40.964344-23.03808 17.073001-44.377393 47.16213-64.010181 90.25963h378.305444zM1699.7449 4.34388h174.748104V969.616168h-174.748104V4.34388z m314.295263 0h174.740348V969.616168h-174.740348V4.34388z m659.936278 250.913394c65.716705 0 127.485134 16.429176 185.313042 49.287529 57.820151 32.858353 102.942209 77.45294 135.373931 133.783761 32.431722 56.330821 48.651461 117.129633 48.651461 182.427464 0 65.716705-16.320579 127.1671-48.969495 184.343426-32.641159 57.184083-77.127148 101.887267-133.457969 134.101794-56.330821 32.222285-118.417283 48.32567-186.267145 48.32567-99.854951 0-185.095848-35.526736-255.722689-106.572452-70.626842-71.053473-105.936384-157.357069-105.936384-258.926302 0-108.806448 39.901645-199.492709 119.697176-272.035512 69.983017-63.156919 150.422374-94.735378 241.318072-94.735378z m2.559787 164.508958c-54.189908 0-99.319723 18.880366-135.381688 56.648855-36.054208 37.760732-54.089068 86.094159-54.089068 144.977009 0 60.597132 17.817667 109.675224 53.445243 147.226519 35.635333 37.551295 80.765148 56.330821 135.389445 56.330821 54.61654 0 100.064389-18.988963 136.33579-56.974646 36.279159-37.977926 54.414859-86.838824 54.414859-146.582694 0-59.736113-17.817667-108.286734-53.445243-145.620835-35.635333-37.334101-81.191779-56.00503-136.669338-56.005029z m604.893107 367.414715c27.738779 0 51.428442 9.703919 71.053473 29.12727 19.625031 19.415594 29.445304 42.988902 29.445304 70.727682 0 27.738779-9.820273 51.420685-29.445304 71.053472-19.625031 19.625031-43.314693 29.445304-71.053473 29.445304-27.738779 0-51.420685-9.820273-71.053472-29.445304-19.625031-19.632788-29.437547-43.314693-29.437547-71.053472 0-27.738779 9.812516-51.312088 29.445304-70.727682 19.625031-19.423351 43.306937-29.12727 71.053472-29.12727z" p-id="2145"></path><path d="M2462.274326 985.130027s-2.482217-22.440797 16.087871-44.873836c18.570089-22.440797 16.095628-28.669611 0-52.359273-16.087871-23.674148-24.752362-36.147291-14.85452-97.217596 9.905599-61.078062 13.621168-120.915015 12.38006-134.621509-1.241109-13.714251-2.482217-24.930771-2.482218-24.930771s55.710267 97.225352 89.127118 139.609215c33.432365 42.376105 103.586034 92.718576 148.545197 57.331465 107.68945-84.759967 146.06298-341.537599 146.06298-341.5376s21.052306 46.122702 16.095628 150.825735c-4.948921 104.710789-17.32898 170.776556-3.715569 198.189545 13.621168 27.428502 39.614638 21.199688 39.614638 21.199687s-37.132421-9.975411-24.760118-67.314632c12.380059-57.339222 34.665717-139.609214 25.99347-165.788851-8.66449-26.17188-11.138951-54.84149-6.190029-87.249942 4.956678-32.408451 44.563559-129.633803 49.520237-159.560036 4.948921-29.91072 2.47446-138.352592-55.70251-149.569112-58.17697-11.224277-94.076039 19.943065-101.507178 61.078062-7.423381 41.134996 9.905599 73.53569 9.905599 73.53569s25.99347-11.21652 27.226822 3.746597c1.241109 14.95536-21.036792 57.339222-43.32245 77.282287-22.277901 19.935308-39.606881 29.918476-39.606881 29.918476s33.424609 79.772261 16.087871 138.360349c-17.32898 58.58033-60.659187 133.372643-125.01843 84.759967-64.367-48.612676-189.393187-234.336836-231.474529-223.120316-42.089099 11.21652-9.820273 34.417496-1.241109 143.348055C2421.426336 773.226231 2462.282083 985.130027 2462.282083 985.130027" p-id="2146"></path><path d="M2754.035709 473.932869s35.953368 69.99853 11.356145 136.31252c-24.597223 66.321746-71.906735 119.735961-121.108938 60.791055-49.194446-58.952663-35.953368-143.681602-64.335972-184.203801-28.390361-40.529956-56.765209-36.845414-56.765209-36.845415s34.805342 20.493807 15.133769 79.213763c-28.382604 84.728939-43.516374 149.204536 15.141526 221.041458s117.323556 116.043663 179.766838 66.313989c62.443281-49.737431 115.423109-233.941232 121.108938-278.147972 5.670315-44.214497-100.297096-64.475597-100.297097-64.475597" p-id="2147"></path><path d="M2575.021294 554.473067s5.631531 65.189234 37.559052 124.785722c31.919764 59.604245 82.704381 59.689571 123.93246 20.493807C2797.234049 642.010014 2787.219853 535.228125 2787.219853 535.228125s51.327601 39.730992 43.190582 76.987524c-11.775019 53.902902-61.962352 225.362068-150.220693 232.80872-88.258342 7.446652-124.902076-73.53569-133.326102-111.746324-13.147995-59.604245 28.16541-178.797221 28.165411-178.797221" p-id="2148"></path><path d="M2755.385415 557.281075c-6.329654-52.072267-29.988289-81.176266-29.988289-81.176266s49.667619-20.7653 75.909311-44.361878c26.241692-23.596579 44.051602-47.193158 35.612062-63.234489-8.431782-16.049087-43.105256 6.601147-43.105256 6.601147s-9.378128-13.210051-13.124725-49.078092c-3.746597-35.868041 3.746597-62.2959 3.746597-62.295899-24.364515 69.843392 5.623774 127.423078 5.623774 127.423078s29.996046-20.7653 35.61982-13.217807c5.623774 7.555249-19.687087 36.814387-51.552553 57.579686-31.865466 20.7653-75.909311 30.205483-75.90931 30.205483s43.113013 61.357311 40.297248 122.699108C2735.713842 649.782458 2691.654483 690.366712 2691.654483 690.366712s74.978479-40.584254 63.730932-133.085637M2948.982857 293.405853c16.305065 71.984304-19.019991 164.252979-19.01999 164.252978s44.074873-83.131012 40.762663-148.56071C2966.195484 219.583156 2885.577717 209.437092 2885.577717 209.437092s47.100075 11.992213 63.40514 83.968761" p-id="2149"></path><path d="M2888.02115 822.281052c-2.908849-29.158297 32.78854-150.794707 35.177674-178.153396 2.932119-33.579747-17.584959-41.034156-13.675466-81.145238s15.040686-143.223943 12.698093-174.43007c-2.932119-39.172493-44.951406-73.690829-98.699169 23.325086 0 0 33.665073-48.457538 62.544122-40.111081 32.245555 9.323829 18.570089 111.001659 11.728477 179.084228-6.841612 68.098083 14.660596 68.098083 6.841611 107.270576-5.135087 25.721978-36.162805 139.911735-23.456954 174.422313 12.70585 34.518336 66.453614 27.987001 66.453614 27.987001s-55.70251 0.930832-59.612002-38.241662" p-id="2150"></path><path d="M2676.900804 814.423283C2582.669626 821.815637 2482.217391 637.844543 2482.217391 637.844543s81.31589 220.343335 206.466188 207.086743C2802.151942 832.908046 2846.79307 535.228125 2846.79307 535.228125s-56.315307 270.282446-169.892266 279.195158" p-id="2151"></path><path d="M2469.216777 863.501375c-14.660596-35.650847 10.076251-105.075365 12.822205-191.378961C2484.792692 585.818818 2412.405027 504.200408 2412.405027 504.200408s46.727742 73.171115 54.065797 126.647385c7.322541 53.468514-21.998652 188.555439-14.660596 224.206286 6.267599 30.51576 23.813773 40.336033 30.228754 59.107801 6.414981 18.756255-18.027104 25.241048-21.075577 52.529926-3.661271 32.835082 19.244942 57.222868 19.244941 57.222868s-8.245616-18.764012-7.330298-37.528024c1.745309-35.604306 27.490558-37.520267 32.067146-63.78523 4.584345-26.27272-21.06782-23.456954-35.728417-59.107802" p-id="2152"></path></svg>