<?xml version="1.0" standalone="no"?><!DOCTYPE svg PUBLIC "-//W3C//DTD SVG 1.1//EN" "http://www.w3.org/Graphics/SVG/1.1/DTD/svg11.dtd"><svg t="1587625944003" class="icon" viewBox="0 0 1820 1024" version="1.1" xmlns="http://www.w3.org/2000/svg" p-id="1897" xmlns:xlink="http://www.w3.org/1999/xlink" width="355.46875" height="200"><defs><style type="text/css"></style></defs><path d="M1378.89383192 272.77192135c-12.06911606-10.5993847-25.66179015-16.20917138-39.35042032-16.2419359-10.43556209-0.0257446-13.39842687 1.24505953-27.38194032 11.74849065-34.84527275 26.17198527-117.18767591 135.34166677-192.319503 254.97499494l-31.59922453 50.31723726-31.154561 24.76310305c-109.99114213 87.43263728-189.44322948 133.38046502-220.54630364 127.5460066-4.33898495-0.81443824-9.19050254-3.04243865-10.77256975-4.94981115-4.10963076-4.95215114-1.36675778-18.38334503 7.15440939-35.02313768 10.97149935-21.43046364 15.81131458-25.92390889 29.68248968-27.56682518 6.54358069-0.77465136 20.16902179-4.17749982 30.27693362-7.55694855 71.21410354-23.83164899 161.93959337-97.10524789 162.24851892-131.03778878 0.13574053-14.64582641-25.06968614-33.87169179-44.4500143-33.9138187-26.02454241-0.05148676-75.14586939 20.23455083-115.68050015 47.77797383l-23.28166943 15.8206745-24.69523159-4.93576887c-13.5833142-2.71713086-38.67172261-6.87824838-55.76086126-9.24432928-17.08679871-2.36842086-31.65305376-4.89364445-32.37621584-5.61446906-3.41221084-3.40987085 98.01329728-142.121624 147.01058606-201.05597958 60.54216741-72.8219154 99.21155003-104.89388814 117.89913816-97.78862554 8.09288335 3.07754314 7.15206941-0.73954681-2.9277603-11.89827102-10.73278279-11.87954876-24.78650524-20.23455083-37.43602545-22.25660168-32.15154412-5.14171838-93.6204856 52.3275858-179.13638797 167.47916856-30.0733265 40.49718629-64.18841235 89.81275802-91.71077067 132.58007153-16.6865995 25.92858879-18.84673085 28.35551881-24.489282 27.53172071-11.26404016-1.64525629-146.8561233-1.54462273-154.41073188 0.11467586-4.07686622 0.89634959-7.41184567 0.88932717-7.41184569-0.01638231s13.05673929-19.18608095 29.01549428-40.62356194c55.19917938-74.15356619 93.14539747-137.93476187 108.15163617-181.79500974 8.94242612-26.13688078 9.26305147-53.54924315 0.81443822-70.08138235-11.80465733-23.10146207-41.52927392-36.06692767-85.32399514-37.21837356-14.15903591-0.3721146-28.90315839-0.28786086-32.7647128 0.1872273-66.42811505 8.15841241-129.73188013 29.4039887-210.63029653 70.69220856-133.73853734 68.25825866-250.58218326 167.64299369-278.90493753 237.23290318-16.88084921 41.47310475-4.79769083 67.43212055 31.32072355 67.29404005 15.02496092-0.05382673 27.94829964-4.9334289 39.97763129-15.08815005 9.41985422-7.95012289 8.60307846-9.45730118-2.58841271-4.78130858-4.65961033 1.94715945-12.51143966 3.54092896-17.44252857 3.54093147-17.13360551 0-18.79290407-8.57967382-5.80871625-30.03588209 20.63474761-34.09636359 89.02406436-105.44386769 149.20348194-155.65578894C344.99395401 289.80489088 433.66930839 238.65917548 512.23440852 217.48146825c16.17172688-4.35770717 30.2090646-6.29082432 51.48740786-7.09122029 27.24619977-1.02506771 29.96801058-0.72784453 39.64764107 4.34366492 14.76518468 7.73481351 20.06136586 15.94237271 19.87882094 30.78244881-0.3744546 30.51331018-44.00066831 104.74176532-138.85217366 236.27570691l-33.03385133 45.8074073-13.44523374 1.51888058c-66.99213691 7.5826907-146.34125069 22.04362979-181.54225329 33.08767809-40.68207116 12.76419603-68.89716946 30.39863187-69.80054145 43.62153378-1.06719461 15.67791402 2.76393764 27.20173294 11.72976842 35.31802095 4.75556397 4.30387799 4.92874898 4.25707115 11.06511051-3.0330763 12.49973732-14.85879836 75.50862165-40.69611344 140.21424903-57.5020712 35.33908311-9.17880018 68.95099868-16.09917546 70.53072591-14.51944819 0.60380628 0.60380628-9.33794289 16.75212857-22.09745902 35.88438273-45.38380835 68.05230913-81.553712 133.68002819-102.10654578 185.2657272-10.73512527 26.94429663-20.06136586 63.05569116-19.99583678 77.41599665 0.10063357 20.63708757 13.84543044 40.07124493 28.34849642 40.07124246 7.69502657 0 8.44627573-1.7201477 2.60947487-5.99126116-5.70574027-4.17515981-4.9615135-21.59428625 1.73887241-40.81547165 15.41813777-44.22534254 70.48625903-137.44328897 130.64929192-221.16181234 13.19481731-18.36228033 54.81536492-74.25888218 58.73308846-78.88572549 3.65560479-4.31090035 185.08786226-19.05736033 185.08786224-15.04368318 0 0.74890671-7.95480532 15.20750827-17.67890271 32.12813947-51.37740951 89.41490122-89.5061749 180.63186148-98.55859687 235.77253417-4.48642538 27.32811109-2.54862576 38.92447897 8.16075482 48.8498459 8.23096387 7.62715756 17.80294089 6.11997931 33.27724536-5.23767201 12.2797455-9.01263758 15.30814187-14.40243239 6.34465356-11.28744478-2.89499579 1.0063455-8.95178849 1.8675881-13.45693606 1.90971495l-8.19117695 0.08425377 0.34168761-10.53151568c1.10697902-33.6914869 48.79601916-126.2237157 133.57939465-259.19228165l19.77350498-31.00946056h13.88053495c14.7230578 0 99.65387365 6.66293895 104.31348646 8.18415704 1.51419817 0.4938104-7.27376517 10.70235826-19.53479092 22.68488302C797.52612647 621.91738393 767.33110171 674.28475664 767.33110171 710.46168021c0 12.05507375 4.36004717 20.60198303 15.50707148 30.38692953 13.55054966 11.89593104 22.87211035 14.87283812 41.83117706 13.35864243 53.5281785-4.27579586 140.8625222-58.78457522 231.20653751-144.30281758 11.28510236-10.68129601 20.95069302-18.98949127 21.47961039-18.46525387 0.52891488 0.53125734-2.33799632 6.20189309-6.36805573 12.60973324-14.48200377 23.02423063-43.16985026 82.16921817-47.31458799 97.56161378-5.27745894 19.59563758-3.46837999 24.93628805 14.06308474 41.51757161 10.58066249 10.00493827 13.88287739 11.81869965 21.54981943 11.81869969 11.3436115 0 28.96400505-10.32322372 56.50976802-33.10640287 25.809233-21.34854982 143.00627126-139.06280315 143.00627123-143.6334797 0-6.68634112 1.79737907-8.14203015-56.29445858 45.46337972-65.96472921 60.86279527-111.69022514 95.31489117-123.98869539 93.41921597-4.59642124-0.70678233-3.92474346-2.78031994 10.12897651-31.18264304 42.16818471-85.23271902 128.84723285-218.68573546 209.24013913-322.15201919 44.79638431-57.65419398 67.39233366-79.2157157 83.01174103-79.21571567 8.80434559 0 8.34797972-2.67968638-2.00566863-11.76721291zM939.34584487 560.71758105c23.12018674-18.91693984 55.19917938-39.35978267 75.82690708-48.32795094 9.68197293-4.21026678 18.06739957-7.18717391 18.63376139-6.61847211 0.56870181 0.56402187-2.95116496 7.10292261-7.81906481 14.52412814-18.20547762 27.75639243-80.62459791 84.25680055-118.50762688 107.26932891-13.72139468 8.33393989-44.19257554 20.51539179-46.22866871 18.47929865-3.92240347-3.92942586 48.15944836-60.83471066 78.09469193-85.32633265zM1504.53714347 258.04184365c-8.87221711 3.71645392-31.89176782 23.77313983-47.13672058 41.07290799-25.31542261 28.72997341-80.56842873 103.88988263-122.61959764 166.80047329-78.5557402 117.52468606-136.82778038 224.18084628-136.82778036 250.43942281 0 7.36269888 12.72909153 25.34350473 22.96104158 32.43472503 10.69533834 7.41184567 20.71665891 7.84948934 33.24682327 1.45568902 17.40742413-8.87923701 57.36399069-43.33835284 105.86044671-91.28951168 26.71026249-26.41069931 48.56198506-47.77329138 48.56198507-47.47372827 0 0.2972232-3.12434995 5.46702622-6.9414375 11.48637195-16.59532828 26.16964528-27.89447291 65.33751828-24.98075491 86.59947682 2.77797995 20.25795303 15.14899917 36.47180679 33.96062552 44.49448117 11.57998559 4.94045126 41.22034837 3.18051665 61.15065607-3.62986269 77.52365014-26.49261067 159.18501807-99.37303519 179.81508579-160.47922444l4.70641715-13.9390441 17.1663676 0.71614219c22.47659354 0.93847396 44.83382881-4.40217403 67.16064191-16.04066633 17.03765191-8.88157699 39.7693393-26.82025843 37.21837357-29.37356413-0.66465539-0.66465539-7.42822794 2.49479903-15.02730341 7.02334878-20.76580819 12.3710192-44.79638431 20.01923895-62.88718355 20.01923901-19.15331395 0-28.85869152-3.97857267-40.21400537-16.47830998a2732.30089804 2732.30089804 0 0 0-15.16070148-16.55554139c-3.51986677-3.79836528-8.69200971-6.75187022-11.82571957-6.7518702-7.22930079 0-23.66080397 12.14400746-29.74099882 21.98512309-4.53557213 7.33695427-4.59408128 8.37840422-1.24271957 21.25025623 1.94013954 7.44929261 4.02771946 14.35094314 4.63854814 15.34324635 0.61550862 0.98996323-4.81407312 10.0681274-12.05507376 20.17370172-32.75301041 45.68805148-81.50924516 98.85113774-111.34151519 121.40730262-27.59724975 20.86410178-51.37272954 27.94127975-58.70500387 17.47763556-13.67926783-19.53244848 30.700535-100.96446226 87.23838761-160.0720053 49.87725363-52.13801853 98.12329322-79.15486661 141.46398851-79.2157157 16.34257194-0.02340214 18.03229262-0.41189906 14.14967604-3.25072571-16.39171872-11.98720473-62.31146189-10.2249301-104.61304963 4.0136772-35.81651125 12.0503938-80.6690648 38.61087348-109.46924468 64.81328326-8.36670441 7.61077529-16.31448735 13.46629594-17.66018046 13.00759004s-15.56323821 11.38573841-31.59454461 26.31942567c-64.87413241 60.44387381-106.34021723 95.04341008-131.15714705 109.44584252-10.47300654 6.07785489-20.85707939 8.20521923-20.85707938 4.27579587 0-3.52922662 34.03083451-68.82462052 50.2095813-96.33761893 68.91589418-117.20171823 181.8207543-275.44591986 226.67564532-317.70771826 13.51076276-12.72909153 21.25025623-16.96042053 31.0188229-16.96042057 7.37206122 0 7.19419379-2.39416546-0.73486689-9.88324004-13.9296842-13.16205279-42.10967806-21.76513127-54.41048578-16.61639047z" p-id="1898"></path></svg>